<?xml version="1.0" encoding="utf-8"?>
<!-- Generator: Adobe Illustrator 22.1.0, SVG Export Plug-In . SVG Version: 6.00 Build 0)  -->
<svg version="1.1" id="Camada_1" xmlns="http://www.w3.org/2000/svg" xmlns:xlink="http://www.w3.org/1999/xlink" x="0px" y="0px"
	 viewBox="0 0 512 512" style="enable-background:new 0 0 512 512;" xml:space="preserve">
<style type="text/css">
	.st0{fill:#FFFFFF;stroke:#000000;stroke-miterlimit:10;}
</style>
<path class="st0" d="M426.8,64H85.2C73.5,64,64,73.5,64,85.2v341.6c0,11.7,9.5,21.2,21.2,21.2H256V296h-45.9v-56H256v-41.4
	c0-49.6,34.4-76.6,78.7-76.6c21.2,0,44,1.6,49.3,2.3v51.8h-35.3c-24.1,0-28.7,11.4-28.7,28.2V240h57.4l-7.5,56H320v152h106.8
	c11.7,0,21.2-9.5,21.2-21.2V85.2C448,73.5,438.5,64,426.8,64z"/>
</svg>
